<?xml version="1.0" encoding="UTF-8" standalone="no"?>
<svg
   xmlns:dc="http://purl.org/dc/elements/1.1/"
   xmlns:cc="http://creativecommons.org/ns#"
   xmlns:rdf="http://www.w3.org/1999/02/22-rdf-syntax-ns#"
   xmlns:svg="http://www.w3.org/2000/svg"
   xmlns="http://www.w3.org/2000/svg"
   xmlns:sodipodi="http://sodipodi.sourceforge.net/DTD/sodipodi-0.dtd"
   xmlns:inkscape="http://www.inkscape.org/namespaces/inkscape"
   width="240"
   height="51"
   style="color-interpolation-filters:sRGB"
   version="1.0"
   id="svg12"
   sodipodi:docname="logo-light.svg"
   inkscape:version="0.92.5 (2060ec1f9f, 2020-04-08)">
  <metadata
     id="metadata18">
    <rdf:RDF>
      <cc:Work
         rdf:about="">
        <dc:format>image/svg+xml</dc:format>
        <dc:type
           rdf:resource="http://purl.org/dc/dcmitype/StillImage" />
        <dc:title></dc:title>
      </cc:Work>
    </rdf:RDF>
  </metadata>
  <defs
     id="defs16" />
  <sodipodi:namedview
     pagecolor="#ffffff"
     bordercolor="#666666"
     borderopacity="1"
     objecttolerance="10"
     gridtolerance="10"
     guidetolerance="10"
     inkscape:pageopacity="0"
     inkscape:pageshadow="2"
     inkscape:window-width="3200"
     inkscape:window-height="1678"
     id="namedview14"
     showgrid="false"
     inkscape:pagecheckerboard="true"
     inkscape:zoom="8.2807017"
     inkscape:cx="136.51294"
     inkscape:cy="24.654483"
     inkscape:window-x="0"
     inkscape:window-y="60"
     inkscape:window-maximized="1"
     inkscape:current-layer="svg12" />
  <g
     id="g8"
     transform="matrix(0.4879661,0,0,0.4879661,0,2.203386)">
    <path
       d="M 63.58,19.23 53.32,0 0,100 h 22.31 z"
       id="path2"
       inkscape:connector-curvature="0"
       style="fill:#ffffff" />
    <path
       d="M 31.12,100 H 75.53 L 53.32,56.59 Z"
       id="path4"
       inkscape:connector-curvature="0"
       style="fill:#ffffff" />
    <path
       d="M 57.62,47.76 84.34,100 h 22.31 L 67.72,26.99 Z"
       id="path6"
       inkscape:connector-curvature="0"
       style="fill:#ffffff" />
  </g>
  <path
     d="m 72.264217,3.033996 q 2.71,0 4.18,0.57 1.48,0.58 2.54,1.22 0.55,0.32 0.89,0.48 0.35,0.16 0.67,0.16 0.74,0 1.01,-2.02 h 1.06 q -0.05,0.87 -0.11,2.09 -0.07,1.22 -0.1,3.2 -0.02,1.98 -0.02,5.2 h -1.06 q -0.18,-2.39 -1.1,-4.65 -0.92,-2.25 -2.6,-3.7 -1.68,-1.45 -4.12,-1.45 -2.21,0 -3.64,1.24 -1.42,1.24 -1.42,3.45 0,1.84 0.92,3.15 0.92,1.32 2.69,2.56 1.77,1.24 4.3,2.99 2.21,1.43 3.96,2.85 1.75,1.43 2.81,3.22 1.05,1.8 1.05,4.28 0,3.04 -1.58,5.02 -1.59,1.98 -4.17,2.96 -2.57,0.99 -5.66,0.99 -2.85,0 -4.55,-0.55 -1.7,-0.55 -2.85,-1.15 -1.02,-0.64 -1.57,-0.64 -0.73,0 -1.01,2.02 h -1.06 q 0.09,-1.1 0.12,-2.57 0.02,-1.48 0.04,-3.85 0.02,-2.37 0.02,-6 h 1.06 q 0.19,3.04 1.04,5.68 0.85,2.65 2.62,4.26 1.77,1.61 4.72,1.61 2.39,0 4.05,-1.29 1.65,-1.29 1.65,-3.87 0,-2.85 -1.93,-4.71 -1.93,-1.87 -4.97,-3.84 -2.16,-1.43 -4.05,-2.86 -1.88,-1.42 -3.01,-3.26 -1.13,-1.84 -1.13,-4.37 0,-2.9 1.45,-4.77 1.45,-1.86 3.82,-2.76 2.37,-0.89 5.04,-0.89 z m 25.760003,9.38 v 0.97 q -1.01,0 -1.77,0.11 -0.76,0.12 -1.01,0.67 -0.25,0.55 0.16,1.79 l 4.37,13.67 -0.6,0.64 5.39,-17.89 0.91999,0.41 -7.03999,23.51 q -0.74,-0.04 -1.47,-0.04 -0.74,0 -1.52,0.04 l -7.270003,-20.34 q -0.65,-1.84 -1.41,-2.2 -0.75,-0.37 -1.26,-0.37 v -0.97 q 1.47,0.14 3.06,0.21 1.59,0.07 3.47,0.07 1.43,0 3.020003,-0.09 1.58,-0.1 2.96,-0.19 z m 24.01999,0 v 0.92 q -0.87,0.23 -1.65,1.06 -0.79,0.83 -1.48,2.9 l -6.12,19 q -0.73,-0.04 -1.49,-0.04 -0.76,0 -1.5,0.04 l -6.47999,-17.71 1.24,-6.21 q 0.82999,0.04 1.67999,0.02 0.85,-0.02 1.68,-0.02 l 6.3,18.58 -0.51,-0.5 3.09,-9.76 q 1.19,-3.77 0.25,-5.47 -0.94,-1.7 -3.24,-1.89 v -0.92 q 0.73,0.05 1.58,0.07 0.86,0.02 1.71,0.05 0.85,0.02 1.45,0.02 0.92,0 1.91,-0.05 0.98,-0.04 1.58,-0.09 z m 6.67,24.11 q -3.08,0 -4.46,-1.61 -1.38,-1.61 -1.38,-3.91 0,-1.98 0.9,-3.22 0.9,-1.24 2.32,-2.05 1.43,-0.8 3.02,-1.33 1.58,-0.53 3.03,-1.06 1.45,-0.53 2.35,-1.22 0.9,-0.69 0.9,-1.75 v -3.59 q 0,-1.19 -0.39,-2.14 -0.4,-0.94 -1.2,-1.45 -0.81,-0.5 -2.09,-0.5 -0.92,0 -1.85,0.25 -0.92,0.25 -1.51,0.85 1.28,0.46 2,1.41 0.71,0.94 0.71,2.13 0,1.57 -1.08,2.49 -1.08,0.92 -2.55,0.92 -1.66,0 -2.51,-1.04 -0.85,-1.03 -0.85,-2.5 0,-1.34 0.66,-2.21 0.67,-0.88 1.87,-1.66 1.29,-0.73 3.1,-1.15 1.82,-0.41 3.94,-0.41 2.11,0 3.82,0.43 1.7,0.44 2.85,1.59 1.06,1.06 1.38,2.6 0.32,1.54 0.32,3.89 v 12.52 q 0,1.1 0.23,1.56 0.23,0.46 0.78,0.46 0.46,0 0.88,-0.23 0.41,-0.23 0.78,-0.55 l 0.46,0.78 q -0.97,0.83 -2.23,1.26 -1.27,0.44 -2.83,0.44 -2.76,0 -3.66,-1.13 -0.9,-1.12 -0.94,-2.59 -1.15,1.88 -2.83,2.8 -1.68,0.92 -3.94,0.92 z m 3.55,-2.94 q 0.87,0 1.63,-0.42 0.76,-0.41 1.5,-1.47 v -9.43 q -0.56,0.92 -1.55,1.54 -0.98,0.62 -2.02,1.33 -1.03,0.72 -1.73,1.82 -0.69,1.11 -0.69,2.95 0,1.97 0.83,2.83 0.83,0.85 2.03,0.85 z m 30.04,-21.81 q 1.48,0 2.4,0.62 0.92,0.62 1.35,1.59 0.44,0.96 0.44,2.02 0,1.7 -0.99,2.78 -0.99,1.09 -2.6,1.09 -1.61,0 -2.51,-0.81 -0.89,-0.8 -0.89,-2.14 0,-1.29 0.57,-2.14 0.58,-0.85 1.45,-1.45 -0.64,-0.18 -1.29,0.05 -1.19,0.18 -2.14,1.13 -0.94,0.94 -1.49,2.23 -0.55,1.29 -0.55,2.53 v 12.19 q 0,2.21 1.08,2.99 1.08,0.78 3.24,0.78 v 0.97 q -1.06,-0.05 -3.08,-0.12 -2.03,-0.06 -4.23,-0.06 -1.85,0 -3.73,0.06 -1.89,0.07 -2.85,0.12 v -0.97 q 1.61,0 2.27,-0.69 0.67,-0.69 0.67,-2.62 v -14.49 q 0,-2.07 -0.62,-3.06 -0.62,-0.99 -2.32,-0.99 v -0.97 q 1.47,0.14 2.85,0.14 1.93,0 3.61,-0.16 1.68,-0.16 3.11,-0.48 v 4.27 q 0.55,-1.24 1.47,-2.25 0.92,-1.01 2.11,-1.59 1.2,-0.57 2.67,-0.57 z m 22.37,0 q 1.93,0 3.12,0.48 1.2,0.48 1.94,1.31 0.73,0.88 1.06,2.28 0.32,1.4 0.32,3.7 v 12.38 q 0,1.93 0.6,2.62 0.59,0.69 2.07,0.69 v 0.97 q -0.83,-0.05 -2.51,-0.12 -1.68,-0.06 -3.29,-0.06 -1.66,0 -3.27,0.06 -1.61,0.07 -2.44,0.12 v -0.97 q 1.25,0 1.73,-0.69 0.48,-0.69 0.48,-2.62 v -14.31 q 0,-1.15 -0.18,-2 -0.19,-0.85 -0.72,-1.33 -0.52,-0.49 -1.58,-0.49 -1.2,0 -2.21,0.69 -1.01,0.69 -1.64,1.91 -0.62,1.22 -0.62,2.74 v 12.79 q 0,1.93 0.51,2.62 0.51,0.69 1.7,0.69 v 0.97 q -0.73,-0.05 -2.28,-0.12 -1.54,-0.06 -3.15,-0.06 -1.75,0 -3.59,0.06 -1.84,0.07 -2.76,0.12 v -0.97 q 1.61,0 2.28,-0.69 0.67,-0.69 0.67,-2.62 v -14.49 q 0,-2.07 -0.62,-3.06 -0.62,-0.99 -2.33,-0.99 v -0.97 q 1.48,0.14 2.86,0.14 1.93,0 3.61,-0.16 1.68,-0.16 3.1,-0.48 v 4.14 q 1.11,-2.3 2.99,-3.29 1.89,-0.99 4.15,-0.99 z m 13.85,0 q 1.93,0 3.12,0.48 1.2,0.48 1.94,1.31 0.73,0.88 1.05,2.28 0.33,1.4 0.33,3.7 v 12.38 q 0,1.93 0.66,2.62 0.67,0.69 2.28,0.69 v 0.97 q -0.87,-0.05 -2.62,-0.12 -1.75,-0.06 -3.45,-0.06 -1.66,0 -3.27,0.06 -1.61,0.07 -2.44,0.12 v -0.97 q 1.24,0 1.73,-0.69 0.48,-0.69 0.48,-2.62 v -14.31 q 0,-1.15 -0.21,-2 -0.2,-0.85 -0.78,-1.33 -0.57,-0.49 -1.77,-0.49 -1.79,0 -3.13,1.59 -1.33,1.59 -1.38,3.89 l -0.23,-2.81 q 1.24,-2.76 3.29,-3.73 2.05,-0.96 4.4,-0.96 z m 17.07,-11.23 q 1.93,0 3.06,0.94 1.12,0.95 1.12,2.6 0,1.66 -1.12,2.6 -1.13,0.95 -3.06,0.95 -1.94,0 -3.06,-0.95 -1.13,-0.94 -1.13,-2.6 0,-1.65 1.13,-2.6 1.12,-0.94 3.06,-0.94 z m 3.58,11.37 v 20.01 q 0,1.93 0.67,2.62 0.67,0.69 2.28,0.69 v 0.97 q -0.83,-0.05 -2.58,-0.12 -1.75,-0.06 -3.54,-0.06 -1.79,0 -3.64,0.06 -1.84,0.07 -2.76,0.12 v -0.97 q 1.61,0 2.28,-0.69 0.67,-0.69 0.67,-2.62 v -14.49 q 0,-2.07 -0.62,-3.06 -0.62,-0.99 -2.33,-0.99 v -0.97 q 1.48,0.14 2.86,0.14 1.93,0 3.61,-0.16 1.68,-0.16 3.1,-0.48 z m 14.27,-7.04 v 7.54 h 5.43 v 0.92 h -5.43 v 18.59 q 0,1.38 0.5,1.96 0.51,0.57 1.52,0.57 0.83,0 1.66,-0.62 0.83,-0.62 1.47,-2.14 l 0.78,0.41 q -0.73,2.08 -2.23,3.41 -1.49,1.33 -4.07,1.33 -1.52,0 -2.67,-0.39 -1.15,-0.39 -1.93,-1.17 -1.01,-1.01 -1.34,-2.51 -0.32,-1.49 -0.32,-3.89 v -15.55 h -3.86 v -0.92 h 3.86 v -6.07 q 1.94,0 3.57,-0.35 1.63,-0.34 3.06,-1.12 z M 65.974217,42.99 v 7.87 h 2.02 c 0.59,0 1.11,-0.09 1.57,-0.27 0.45,-0.18 0.84,-0.44 1.15,-0.78 0.31,-0.34 0.55,-0.76 0.71,-1.25 0.16,-0.49 0.24,-1.05 0.24,-1.67 0,-1.26 -0.32,-2.22 -0.95,-2.89 -0.63,-0.68 -1.56,-1.01 -2.77,-1.01 z m 1.9,7.05 h -0.9 V 43.8 h 0.9 c 0.92,0 1.61,0.27 2.07,0.8 0.46,0.52 0.69,1.29 0.69,2.29 0,1 -0.23,1.77 -0.69,2.33 -0.46,0.55 -1.15,0.82 -2.07,0.82 z m 8.38,0.96 c 0.5,0 0.95,-0.09 1.37,-0.28 0.41,-0.2 0.76,-0.47 1.06,-0.83 0.3,-0.35 0.54,-0.78 0.7,-1.29 0.16,-0.51 0.25,-1.08 0.25,-1.71 0,-0.63 -0.09,-1.19 -0.25,-1.69 -0.16,-0.5 -0.4,-0.92 -0.7,-1.27 -0.3,-0.35 -0.65,-0.62 -1.06,-0.8 -0.42,-0.19 -0.87,-0.29 -1.37,-0.29 -0.49,0 -0.95,0.1 -1.36,0.28 -0.41,0.18 -0.76,0.45 -1.06,0.8 -0.3,0.35 -0.53,0.77 -0.69,1.27 -0.16,0.5 -0.25,1.07 -0.25,1.7 0,0.63 0.09,1.2 0.25,1.71 0.16,0.51 0.39,0.94 0.69,1.29 0.3,0.36 0.65,0.63 1.06,0.83 0.41,0.19 0.87,0.28 1.36,0.28 z m 0,-0.87 c -0.35,0 -0.67,-0.08 -0.95,-0.23 -0.28,-0.15 -0.53,-0.37 -0.73,-0.65 -0.21,-0.29 -0.36,-0.63 -0.48,-1.02 -0.11,-0.4 -0.16,-0.85 -0.16,-1.34 0,-0.49 0.05,-0.93 0.16,-1.32 0.12,-0.39 0.27,-0.73 0.48,-1 0.2,-0.27 0.45,-0.48 0.73,-0.63 0.28,-0.15 0.6,-0.22 0.95,-0.22 0.36,0 0.67,0.07 0.96,0.22 0.28,0.15 0.53,0.36 0.73,0.63 0.2,0.27 0.36,0.61 0.47,1 0.12,0.39 0.17,0.83 0.17,1.32 0,0.49 -0.05,0.94 -0.17,1.34 -0.11,0.39 -0.27,0.73 -0.47,1.02 -0.2,0.28 -0.45,0.5 -0.73,0.65 -0.29,0.15 -0.6,0.23 -0.96,0.23 z m 4.61,-3.21 c 0,0.64 0.09,1.22 0.26,1.73 0.17,0.5 0.41,0.93 0.72,1.28 0.31,0.35 0.67,0.61 1.09,0.8 0.42,0.18 0.88,0.27 1.38,0.27 0.5,0 0.95,-0.1 1.34,-0.3 0.39,-0.2 0.74,-0.48 1.06,-0.84 l -0.57,-0.61 c -0.25,0.28 -0.52,0.5 -0.81,0.65 -0.28,0.15 -0.62,0.23 -1,0.23 -0.38,0 -0.71,-0.08 -1.01,-0.23 -0.3,-0.15 -0.56,-0.37 -0.77,-0.65 -0.2,-0.28 -0.37,-0.62 -0.48,-1.01 -0.12,-0.4 -0.18,-0.84 -0.18,-1.34 0,-0.49 0.06,-0.93 0.18,-1.32 0.12,-0.39 0.29,-0.73 0.51,-1 0.21,-0.28 0.47,-0.49 0.78,-0.64 0.3,-0.15 0.64,-0.22 1.02,-0.22 0.33,0 0.63,0.07 0.88,0.2 0.25,0.13 0.48,0.31 0.69,0.53 l 0.56,-0.63 c -0.23,-0.26 -0.52,-0.49 -0.88,-0.68 -0.36,-0.2 -0.78,-0.3 -1.26,-0.3 -0.51,0 -0.97,0.1 -1.4,0.29 -0.43,0.18 -0.8,0.45 -1.11,0.81 -0.31,0.35 -0.56,0.78 -0.73,1.28 -0.18,0.5 -0.27,1.07 -0.27,1.7 z m 7.31,-3.93 v 7.87 h 1 v -2.5 l 1.35,-1.59 2.35,4.09 h 1.12 l -2.84,-4.87 2.46,-3 h -1.13 l -3.28,3.95 h -0.03 v -3.95 z m 6.950003,0 v 7.87 h 4.65 v -0.85 h -3.66 v -2.86 h 2.99 V 46.3 h -2.99 v -2.47 h 3.54 v -0.84 z m 7.32,3.73 v -2.93 h 1.32 c 0.61,0 1.09,0.11 1.41,0.31 0.32999,0.21 0.49999,0.58 0.49999,1.1 0,0.51 -0.17,0.89 -0.49999,1.14 -0.32,0.25 -0.8,0.38 -1.41,0.38 z m 3.31999,4.14 h 1.13 l -1.98999,-3.43 c 0.52999,-0.14 0.95999,-0.39 1.27999,-0.76 0.32,-0.37 0.48,-0.86 0.48,-1.47 0,-0.41 -0.07,-0.76 -0.2,-1.04 -0.14,-0.28 -0.33,-0.5 -0.57,-0.68 -0.25,-0.18 -0.54,-0.3 -0.87999,-0.38 -0.34,-0.07 -0.71,-0.11 -1.11,-0.11 h -2.46 v 7.87 h 1 v -3.32 h 1.43 z m 5.1,-1.72 -0.6,0.7 c 0.35,0.36 0.75,0.64 1.23,0.85 0.47,0.21 0.98,0.31 1.53,0.31 0.42,0 0.79,-0.05 1.12,-0.17 0.33,-0.12 0.61,-0.28 0.84,-0.48 0.23,-0.2 0.41,-0.44 0.53,-0.71 0.13,-0.28 0.19,-0.57 0.19,-0.88 0,-0.29 -0.04,-0.54 -0.13,-0.76 -0.08,-0.22 -0.2,-0.41 -0.34,-0.58 a 2.21,2.21 0 0 0 -0.52,-0.43 c -0.2,-0.12 -0.41,-0.23 -0.63,-0.33 l -1.12,-0.48 a 4.84,4.84 0 0 1 -0.47,-0.21 c -0.15,-0.08 -0.29,-0.16 -0.42,-0.26 -0.12,-0.1 -0.23,-0.22 -0.3,-0.35 a 0.937,0.937 0 0 1 -0.12,-0.49 c 0,-0.36 0.14,-0.64 0.41,-0.84 0.26,-0.21 0.62,-0.31 1.06,-0.31 0.37,0 0.7,0.07 0.99,0.2 0.29,0.13 0.56,0.31 0.8,0.54 l 0.54,-0.64 a 3.27,3.27 0 0 0 -1.02,-0.71 c -0.4,-0.18 -0.84,-0.27 -1.31,-0.27 -0.36,0 -0.69,0.06 -0.99,0.16 -0.3,0.1 -0.56,0.25 -0.78,0.44 -0.22,0.19 -0.39,0.41 -0.52,0.66 -0.12,0.26 -0.18,0.54 -0.18,0.83 0,0.29 0.04,0.54 0.14,0.76 0.1,0.22 0.22,0.41 0.37,0.57 0.15,0.16 0.33,0.3 0.52,0.41 0.19,0.11 0.38,0.21 0.56,0.29 l 1.13,0.49 c 0.18,0.09 0.36,0.17 0.52,0.25 0.16,0.08 0.29,0.17 0.41,0.27 0.12,0.1 0.21,0.22 0.28,0.36 0.06,0.14 0.1,0.31 0.1,0.51 0,0.39 -0.15,0.7 -0.43,0.93 -0.29,0.24 -0.7,0.36 -1.22,0.36 -0.4,0 -0.8,-0.09 -1.18,-0.27 -0.38,-0.18 -0.71,-0.42 -0.99,-0.72 z m 5.58,-6.15 1.67,7.87 h 1.19 l 1.16,-4.74 c 0.07,-0.3 0.13,-0.6 0.2,-0.89 0.07,-0.3 0.13,-0.59 0.2,-0.9 h 0.05 c 0.06,0.31 0.12,0.6 0.18,0.9 0.06,0.29 0.13,0.59 0.2,0.89 l 1.19,4.74 h 1.2 l 1.63,-7.87 h -0.96 l -0.83,4.28 c -0.08,0.43 -0.15,0.85 -0.23,1.27 -0.07,0.42 -0.14,0.84 -0.21,1.28 h -0.05 c -0.1,-0.44 -0.19,-0.86 -0.29,-1.29 -0.09,-0.42 -0.19,-0.84 -0.29,-1.26 l -1.09,-4.28 h -0.91 l -1.09,4.28 c -0.09,0.43 -0.18,0.85 -0.28,1.27 -0.09,0.42 -0.19,0.84 -0.27,1.28 h -0.05 c -0.07,-0.44 -0.15,-0.86 -0.23,-1.28 -0.08,-0.41 -0.16,-0.84 -0.23,-1.27 l -0.83,-4.28 z m 13.59,4.67 h -2.37 l 0.37,-1.2 c 0.15,-0.44 0.28,-0.88 0.41,-1.32 0.13,-0.43 0.25,-0.88 0.37,-1.34 h 0.05 c 0.13,0.46 0.26,0.91 0.39,1.34 0.12,0.44 0.26,0.88 0.4,1.32 z m 0.25,0.8 0.74,2.4 h 1.07 l -2.66,-7.87 h -1.13 l -2.67,7.87 h 1.02 l 0.76,-2.4 z m 3.92,-1.74 v -2.93 h 1.32 c 0.62,0 1.09,0.11 1.42,0.31 0.33,0.21 0.49,0.58 0.49,1.1 0,0.51 -0.16,0.89 -0.49,1.14 -0.33,0.25 -0.8,0.38 -1.42,0.38 z m 3.33,4.14 h 1.12 l -1.99,-3.43 c 0.54,-0.14 0.97,-0.39 1.29,-0.76 0.32,-0.37 0.48,-0.86 0.48,-1.47 0,-0.41 -0.07,-0.76 -0.21,-1.04 -0.13,-0.28 -0.32,-0.5 -0.57,-0.68 -0.24,-0.18 -0.53,-0.3 -0.87,-0.38 -0.34,-0.07 -0.71,-0.11 -1.11,-0.11 h -2.46 v 7.87 h 0.99 v -3.32 h 1.43 z m 2.65,-7.87 v 7.87 h 0.92 v -4.33 c 0,-0.35 -0.01,-0.74 -0.05,-1.17 -0.03,-0.42 -0.06,-0.81 -0.08,-1.16 h 0.05 l 0.62,1.75 1.53,4.12 h 0.56 l 1.51,-4.12 0.64,-1.75 h 0.05 c -0.04,0.35 -0.07,0.74 -0.09,1.16 -0.03,0.43 -0.05,0.82 -0.05,1.17 v 4.33 h 0.95 v -7.87 h -1.17 l -1.52,4.22 -0.55,1.61 h -0.05 l -0.57,-1.61 -1.53,-4.22 z m 11.11,0 v 4.62 c 0,0.63 0.07,1.16 0.22,1.59 0.14,0.44 0.34,0.79 0.59,1.05 0.25,0.27 0.55,0.46 0.9,0.58 0.35,0.12 0.72,0.17 1.12,0.17 0.4,0 0.77,-0.05 1.12,-0.17 0.34,-0.12 0.64,-0.31 0.89,-0.58 0.25,-0.26 0.45,-0.61 0.6,-1.05 0.14,-0.43 0.21,-0.96 0.21,-1.59 v -4.62 h -0.96 v 4.64 c 0,0.47 -0.05,0.87 -0.14,1.19 -0.1,0.32 -0.23,0.58 -0.4,0.77 -0.17,0.19 -0.36,0.33 -0.59,0.41 -0.22,0.09 -0.46,0.13 -0.73,0.13 -0.25,0 -0.49,-0.04 -0.72,-0.13 -0.22,-0.08 -0.42,-0.22 -0.58,-0.41 -0.16,-0.19 -0.29,-0.45 -0.39,-0.77 -0.1,-0.32 -0.14,-0.72 -0.14,-1.19 v -4.64 z m 7.68,6.15 -0.6,0.7 c 0.34,0.36 0.75,0.64 1.22,0.85 0.48,0.21 0.99,0.31 1.54,0.31 0.42,0 0.79,-0.05 1.12,-0.17 0.32,-0.12 0.6,-0.28 0.84,-0.48 0.23,-0.2 0.41,-0.44 0.53,-0.71 a 2.208,2.208 0 0 0 0.06,-1.64 c -0.08,-0.22 -0.2,-0.41 -0.34,-0.58 -0.15,-0.16 -0.32,-0.31 -0.52,-0.43 -0.2,-0.12 -0.41,-0.23 -0.63,-0.33 l -1.12,-0.48 c -0.16,-0.06 -0.32,-0.13 -0.47,-0.21 -0.15,-0.08 -0.29,-0.16 -0.42,-0.26 a 1.1,1.1 0 0 1 -0.3,-0.35 0.937,0.937 0 0 1 -0.12,-0.49 c 0,-0.36 0.14,-0.64 0.4,-0.84 0.27,-0.21 0.63,-0.31 1.07,-0.31 0.36,0 0.69,0.07 0.99,0.2 0.29,0.13 0.55,0.31 0.79,0.54 l 0.54,-0.64 a 3.27,3.27 0 0 0 -1.02,-0.71 c -0.4,-0.18 -0.83,-0.27 -1.3,-0.27 -0.36,0 -0.69,0.06 -0.99,0.16 -0.3,0.1 -0.56,0.25 -0.78,0.44 -0.22,0.19 -0.4,0.41 -0.52,0.66 -0.12,0.26 -0.19,0.54 -0.19,0.83 0,0.29 0.05,0.54 0.15,0.76 0.09,0.22 0.22,0.41 0.37,0.57 0.15,0.16 0.32,0.3 0.52,0.41 0.19,0.11 0.38,0.21 0.56,0.29 l 1.13,0.49 c 0.18,0.09 0.35,0.17 0.51,0.25 0.16,0.08 0.3,0.17 0.42,0.27 a 1.13,1.13 0 0 1 0.38,0.87 c 0,0.39 -0.15,0.7 -0.44,0.93 -0.28,0.24 -0.69,0.36 -1.21,0.36 -0.41,0 -0.8,-0.09 -1.18,-0.27 -0.38,-0.18 -0.71,-0.42 -0.99,-0.72 z m 6.38,-6.15 v 7.87 h 4.66 v -0.85 h -3.66 v -2.86 h 2.99 V 46.3 h -2.99 v -2.47 h 3.54 v -0.84 z m 7.32,3.73 v -2.93 h 1.32 c 0.62,0 1.09,0.11 1.42,0.31 0.33,0.21 0.49,0.58 0.49,1.1 0,0.51 -0.16,0.89 -0.49,1.14 -0.33,0.25 -0.8,0.38 -1.42,0.38 z m 3.33,4.14 h 1.13 l -2,-3.43 c 0.54,-0.14 0.97,-0.39 1.29,-0.76 0.32,-0.37 0.48,-0.86 0.48,-1.47 0,-0.41 -0.07,-0.76 -0.21,-1.04 -0.13,-0.28 -0.32,-0.5 -0.57,-0.68 -0.24,-0.18 -0.53,-0.3 -0.87,-0.38 -0.34,-0.07 -0.71,-0.11 -1.11,-0.11 h -2.46 v 7.87 h 0.99 v -3.32 h 1.43 z m 5.07,-7.87 v 7.87 h 1 v -7.87 z m 3.16,0 v 7.87 h 0.95 v -4.12 c 0,-0.41 -0.02,-0.83 -0.04,-1.24 l -0.09,-1.22 h 0.04 l 0.86,1.62 2.85,4.96 h 1.03 v -7.87 h -0.94 v 4.07 c 0,0.41 0.01,0.83 0.04,1.26 0.03,0.43 0.05,0.84 0.08,1.24 h -0.05 l -0.85,-1.63 -2.85,-4.94 z m 9.4,0.84 v 7.03 h 1 v -7.03 h 2.38 v -0.84 h -5.76 v 0.84 z m 4.8,-0.84 v 7.87 h 4.65 v -0.85 h -3.66 v -2.86 h 2.99 V 46.3 h -2.99 v -2.47 h 3.54 v -0.84 z m 7.32,3.73 v -2.93 h 1.32 c 0.61,0 1.08,0.11 1.41,0.31 0.33,0.21 0.49,0.58 0.49,1.1 0,0.51 -0.16,0.89 -0.49,1.14 -0.33,0.25 -0.8,0.38 -1.41,0.38 z m 3.32,4.14 h 1.13 l -1.99,-3.43 c 0.53,-0.14 0.96,-0.39 1.28,-0.76 0.32,-0.37 0.48,-0.86 0.48,-1.47 0,-0.41 -0.07,-0.76 -0.2,-1.04 -0.14,-0.28 -0.33,-0.5 -0.57,-0.68 -0.25,-0.18 -0.54,-0.3 -0.88,-0.38 -0.34,-0.07 -0.71,-0.11 -1.11,-0.11 h -2.46 v 7.87 h 1 v -3.32 h 1.42 z m 2.65,-7.87 v 7.87 h 1 v -3.53 h 3 v -0.84 h -3 v -2.66 h 3.54 v -0.84 z m 8.83,4.67 h -2.36 l 0.37,-1.2 c 0.15,-0.44 0.28,-0.88 0.41,-1.32 0.13,-0.43 0.25,-0.88 0.37,-1.34 h 0.05 c 0.13,0.46 0.26,0.91 0.38,1.34 0.13,0.44 0.27,0.88 0.41,1.32 z m 0.26,0.8 0.74,2.4 h 1.07 l -2.67,-7.87 h -1.12 l -2.67,7.87 h 1.02 l 0.76,-2.4 z m 2.35,-1.54 c 0,0.64 0.08,1.22 0.26,1.73 0.17,0.5 0.41,0.93 0.72,1.28 0.3,0.35 0.67,0.61 1.09,0.8 0.42,0.18 0.88,0.27 1.37,0.27 0.51,0 0.95,-0.1 1.35,-0.3 0.39,-0.2 0.74,-0.48 1.05,-0.84 l -0.56,-0.61 c -0.26,0.28 -0.53,0.5 -0.81,0.65 -0.29,0.15 -0.62,0.23 -1,0.23 -0.38,0 -0.72,-0.08 -1.02,-0.23 -0.3,-0.15 -0.55,-0.37 -0.76,-0.65 -0.21,-0.28 -0.37,-0.62 -0.49,-1.01 -0.11,-0.4 -0.17,-0.84 -0.17,-1.34 0,-0.49 0.06,-0.93 0.18,-1.32 0.12,-0.39 0.29,-0.73 0.5,-1 0.22,-0.28 0.48,-0.49 0.78,-0.64 0.31,-0.15 0.65,-0.22 1.02,-0.22 0.34,0 0.63,0.07 0.89,0.2 0.25,0.13 0.48,0.31 0.69,0.53 l 0.56,-0.63 c -0.23,-0.26 -0.53,-0.49 -0.89,-0.68 -0.36,-0.2 -0.78,-0.3 -1.26,-0.3 -0.5,0 -0.97,0.1 -1.4,0.29 -0.42,0.18 -0.79,0.45 -1.11,0.81 -0.31,0.35 -0.55,0.78 -0.73,1.28 -0.17,0.5 -0.26,1.07 -0.26,1.7 z m 7.31,-3.93 v 7.87 h 4.65 v -0.85 h -3.66 v -2.86 h 2.99 V 46.3 h -2.99 v -2.47 h 3.54 v -0.84 z"
     id="path10"
     inkscape:connector-curvature="0"
     style="fill:#ffffff" />
</svg>
