<svg xmlns="http://www.w3.org/2000/svg" width="178" height="114" style="color-interpolation-filters:sRGB" version="1.0">
  <svg width="60" height="56.259" style="overflow:visible" transform="translate(58.825 .286)">
    <svg viewBox="0 0 106.65 100">
      <path fill="#3296cb" d="M63.58 19.23 53.32 0 0 100h22.31z"/>
      <path fill="#bc1029" d="M31.12 100h44.41L53.32 56.59Z"/>
      <path fill="#0a3d85" d="M57.62 47.76 84.34 100h22.31L67.72 26.99Z"/>
    </svg>
  </svg>
  <path fill="#212529" d="M10.54 66.034q2.71 0 4.18.57 1.48.58 2.54 1.22.55.32.89.48.35.16.67.16.74 0 1.01-2.02h1.06q-.05.87-.11 2.09-.07 1.22-.1 3.2-.02 1.98-.02 5.2H19.6q-.18-2.39-1.1-4.65-.92-2.25-2.6-3.7-1.68-1.45-4.12-1.45-2.21 0-3.64 1.24-1.42 1.24-1.42 3.45 0 1.84.92 3.15.92 1.32 2.69 2.56t4.3 2.99q2.21 1.43 3.96 2.85 1.75 1.43 2.81 3.22 1.05 1.8 1.05 4.28 0 3.04-1.58 5.02-1.59 1.98-4.17 2.96-2.57.99-5.66.99-2.85 0-4.55-.55-1.7-.55-2.85-1.15-1.02-.64-1.57-.64-.73 0-1.01 2.02H0q.09-1.1.12-2.57.02-1.48.04-3.85t.02-6h1.06q.19 3.04 1.04 5.68.85 2.65 2.62 4.26 1.77 1.61 4.72 1.61 2.39 0 4.05-1.29 1.65-1.29 1.65-3.87 0-2.85-1.93-4.71-1.93-1.87-4.97-3.84-2.16-1.43-4.05-2.86-1.88-1.42-3.01-3.26-1.13-1.84-1.13-4.37 0-2.9 1.45-4.77 1.45-1.86 3.82-2.76 2.37-.89 5.04-.89zm25.76 9.38v.97q-1.01 0-1.77.11-.76.12-1.01.67t.16 1.79l4.37 13.67-.6.64 5.39-17.89.92.41-7.04 23.51q-.74-.04-1.47-.04-.74 0-1.52.04l-7.27-20.34q-.65-1.84-1.41-2.2-.75-.37-1.26-.37v-.97q1.47.14 3.06.21 1.59.07 3.47.07 1.43 0 3.02-.09 1.58-.1 2.96-.19zm24.02 0v.92q-.87.23-1.65 1.06-.79.83-1.48 2.9l-6.12 19q-.73-.04-1.49-.04t-1.5.04l-6.48-17.71 1.24-6.21q.83.04 1.68.02t1.68-.02l6.3 18.58-.51-.5 3.09-9.76q1.19-3.77.25-5.47-.94-1.7-3.24-1.89v-.92q.73.05 1.58.07.86.02 1.71.05.85.02 1.45.02.92 0 1.91-.05.98-.04 1.58-.09zm6.67 24.11q-3.08 0-4.46-1.61t-1.38-3.91q0-1.98.9-3.22.9-1.24 2.32-2.05 1.43-.8 3.02-1.33 1.58-.53 3.03-1.06 1.45-.53 2.35-1.22.9-.69.9-1.75v-3.59q0-1.19-.39-2.14-.4-.94-1.2-1.45-.81-.5-2.09-.5-.92 0-1.85.25-.92.25-1.51.85 1.28.46 2 1.41.71.94.71 2.13 0 1.57-1.08 2.49-1.08.92-2.55.92-1.66 0-2.51-1.04-.85-1.03-.85-2.5 0-1.34.66-2.21.67-.88 1.87-1.66 1.29-.73 3.1-1.15 1.82-.41 3.94-.41 2.11 0 3.82.43 1.7.44 2.85 1.59 1.06 1.06 1.38 2.6.32 1.54.32 3.89v12.52q0 1.1.23 1.56.23.46.78.46.46 0 .88-.23.41-.23.78-.55l.46.78q-.97.83-2.23 1.26-1.27.44-2.83.44-2.76 0-3.66-1.13-.9-1.12-.94-2.59-1.15 1.88-2.83 2.8-1.68.92-3.94.92zm3.55-2.94q.87 0 1.63-.42.76-.41 1.5-1.47v-9.43q-.56.92-1.55 1.54-.98.62-2.02 1.33-1.03.72-1.73 1.82-.69 1.11-.69 2.95 0 1.97.83 2.83.83.85 2.03.85zm30.04-21.81q1.48 0 2.4.62.92.62 1.35 1.59.44.96.44 2.02 0 1.7-.99 2.78-.99 1.09-2.6 1.09t-2.51-.81q-.89-.8-.89-2.14 0-1.29.57-2.14.58-.85 1.45-1.45-.64-.18-1.29.05-1.19.18-2.14 1.13-.94.94-1.49 2.23t-.55 2.53v12.19q0 2.21 1.08 2.99 1.08.78 3.24.78v.97q-1.06-.05-3.08-.12-2.03-.06-4.23-.06-1.85 0-3.73.06-1.89.07-2.85.12v-.97q1.61 0 2.27-.69.67-.69.67-2.62v-14.49q0-2.07-.62-3.06-.62-.99-2.32-.99v-.97q1.47.14 2.85.14 1.93 0 3.61-.16t3.11-.48v4.27q.55-1.24 1.47-2.25.92-1.01 2.11-1.59 1.2-.57 2.67-.57zm22.37 0q1.93 0 3.12.48 1.2.48 1.94 1.31.73.88 1.06 2.28.32 1.4.32 3.7v12.38q0 1.93.6 2.62.59.69 2.07.69v.97q-.83-.05-2.51-.12-1.68-.06-3.29-.06-1.66 0-3.27.06-1.61.07-2.44.12v-.97q1.25 0 1.73-.69t.48-2.62v-14.31q0-1.15-.18-2-.19-.85-.72-1.33-.52-.49-1.58-.49-1.2 0-2.21.69t-1.64 1.91q-.62 1.22-.62 2.74v12.79q0 1.93.51 2.62.51.69 1.7.69v.97q-.73-.05-2.28-.12-1.54-.06-3.15-.06-1.75 0-3.59.06-1.84.07-2.76.12v-.97q1.61 0 2.28-.69.67-.69.67-2.62v-14.49q0-2.07-.62-3.06-.62-.99-2.33-.99v-.97q1.48.14 2.86.14 1.93 0 3.61-.16t3.1-.48v4.14q1.11-2.3 2.99-3.29 1.89-.99 4.15-.99zm13.85 0q1.93 0 3.12.48 1.2.48 1.94 1.31.73.88 1.05 2.28.33 1.4.33 3.7v12.38q0 1.93.66 2.62.67.69 2.28.69v.97q-.87-.05-2.62-.12-1.75-.06-3.45-.06-1.66 0-3.27.06-1.61.07-2.44.12v-.97q1.24 0 1.73-.69.48-.69.48-2.62v-14.31q0-1.15-.21-2-.2-.85-.78-1.33-.57-.49-1.77-.49-1.79 0-3.13 1.59-1.33 1.59-1.38 3.89l-.23-2.81q1.24-2.76 3.29-3.73 2.05-.96 4.4-.96zm17.07-11.23q1.93 0 3.06.94 1.12.95 1.12 2.6 0 1.66-1.12 2.6-1.13.95-3.06.95-1.94 0-3.06-.95-1.13-.94-1.13-2.6 0-1.65 1.13-2.6 1.12-.94 3.06-.94zm3.58 11.37v20.01q0 1.93.67 2.62.67.69 2.28.69v.97q-.83-.05-2.58-.12-1.75-.06-3.54-.06t-3.64.06q-1.84.07-2.76.12v-.97q1.61 0 2.28-.69.67-.69.67-2.62v-14.49q0-2.07-.62-3.06-.62-.99-2.33-.99v-.97q1.48.14 2.86.14 1.93 0 3.61-.16t3.1-.48zm14.27-7.04v7.54h5.43v.92h-5.43v18.59q0 1.38.5 1.96.51.57 1.52.57.83 0 1.66-.62t1.47-2.14l.78.41q-.73 2.08-2.23 3.41-1.49 1.33-4.07 1.33-1.52 0-2.67-.39t-1.93-1.17q-1.01-1.01-1.34-2.51-.32-1.49-.32-3.89v-15.55h-3.86v-.92h3.86v-6.07q1.94 0 3.57-.35 1.63-.34 3.06-1.12zM4.25 105.99v7.87h2.02c.59 0 1.11-.09 1.57-.27.45-.18.84-.44 1.15-.78.31-.34.55-.76.71-1.25.16-.49.24-1.05.24-1.67 0-1.26-.32-2.22-.95-2.89-.63-.68-1.56-1.01-2.77-1.01zm1.9 7.05h-.9v-6.24h.9c.92 0 1.61.27 2.07.8.46.52.69 1.29.69 2.29s-.23 1.77-.69 2.33c-.46.55-1.15.82-2.07.82zm8.38.96c.5 0 .95-.09 1.37-.28.41-.2.76-.47 1.06-.83.3-.35.54-.78.7-1.29.16-.51.25-1.08.25-1.71 0-.63-.09-1.19-.25-1.69s-.4-.92-.7-1.27c-.3-.35-.65-.62-1.06-.8-.42-.19-.87-.29-1.37-.29-.49 0-.95.1-1.36.28-.41.18-.76.45-1.06.8-.3.35-.53.77-.69 1.27-.16.5-.25 1.07-.25 1.7 0 .63.09 1.2.25 1.71s.39.94.69 1.29c.3.36.65.63 1.06.83.41.19.87.28 1.36.28zm0-.87c-.35 0-.67-.08-.95-.23-.28-.15-.53-.37-.73-.65-.21-.29-.36-.63-.48-1.02-.11-.4-.16-.85-.16-1.34 0-.49.05-.93.16-1.32.12-.39.27-.73.48-1 .2-.27.45-.48.73-.63.28-.15.6-.22.95-.22.36 0 .67.07.96.22.28.15.53.36.73.63.2.27.36.61.47 1 .12.39.17.83.17 1.32 0 .49-.05.94-.17 1.34-.11.39-.27.73-.47 1.02-.2.28-.45.5-.73.65-.29.15-.6.23-.96.23zm4.61-3.21c0 .64.09 1.22.26 1.73.17.5.41.93.72 1.28s.67.61 1.09.8c.42.18.88.27 1.38.27.5 0 .95-.1 1.34-.3.39-.2.74-.48 1.06-.84l-.57-.61c-.25.28-.52.5-.81.65-.28.15-.62.23-1 .23s-.71-.08-1.01-.23c-.3-.15-.56-.37-.77-.65-.2-.28-.37-.62-.48-1.01-.12-.4-.18-.84-.18-1.34 0-.49.06-.93.18-1.32s.29-.73.51-1c.21-.28.47-.49.78-.64.3-.15.64-.22 1.02-.22.33 0 .63.07.88.2s.48.31.69.53l.56-.63c-.23-.26-.52-.49-.88-.68-.36-.2-.78-.3-1.26-.3-.51 0-.97.1-1.4.29-.43.18-.8.45-1.11.81-.31.35-.56.78-.73 1.28-.18.5-.27 1.07-.27 1.7zm7.31-3.93v7.87h1v-2.5l1.35-1.59 2.35 4.09h1.12l-2.84-4.87 2.46-3h-1.13l-3.28 3.95h-.03v-3.95zm6.95 0v7.87h4.65v-.85h-3.66v-2.86h2.99v-.85h-2.99v-2.47h3.54v-.84zm7.32 3.73v-2.93h1.32c.61 0 1.09.11 1.41.31.33.21.5.58.5 1.1 0 .51-.17.89-.5 1.14-.32.25-.8.38-1.41.38zm3.32 4.14h1.13l-1.99-3.43c.53-.14.96-.39 1.28-.76.32-.37.48-.86.48-1.47 0-.41-.07-.76-.2-1.04-.14-.28-.33-.5-.57-.68-.25-.18-.54-.3-.88-.38-.34-.07-.71-.11-1.11-.11h-2.46v7.87h1v-3.32h1.43zm5.1-1.72-.6.7c.35.36.75.64 1.23.85.47.21.98.31 1.53.31.42 0 .79-.05 1.12-.17.33-.12.61-.28.84-.48.23-.2.41-.44.53-.71.13-.28.19-.57.19-.88 0-.29-.04-.54-.13-.76-.08-.22-.2-.41-.34-.58a2.21 2.21 0 0 0-.52-.43c-.2-.12-.41-.23-.63-.33l-1.12-.48a4.84 4.84 0 0 1-.47-.21c-.15-.08-.29-.16-.42-.26-.12-.1-.23-.22-.3-.35a.937.937 0 0 1-.12-.49c0-.36.14-.64.41-.84.26-.21.62-.31 1.06-.31.37 0 .7.07.99.2.29.13.56.31.8.54l.54-.64a3.27 3.27 0 0 0-1.02-.71c-.4-.18-.84-.27-1.31-.27-.36 0-.69.06-.99.16-.3.1-.56.25-.78.44-.22.19-.39.41-.52.66-.12.26-.18.54-.18.83 0 .29.04.54.14.76.1.22.22.41.37.57.15.16.33.3.52.41.19.11.38.21.56.29l1.13.49c.18.09.36.17.52.25.16.08.29.17.41.27s.21.22.28.36c.06.14.1.31.1.51 0 .39-.15.7-.43.93-.29.24-.7.36-1.22.36-.4 0-.8-.09-1.18-.27-.38-.18-.71-.42-.99-.72zm5.58-6.15 1.67 7.87h1.19l1.16-4.74c.07-.3.13-.6.2-.89.07-.3.13-.59.2-.9h.05c.06.31.12.6.18.9.06.29.13.59.2.89l1.19 4.74h1.2l1.63-7.87h-.96l-.83 4.28c-.08.43-.15.85-.23 1.27-.07.42-.14.84-.21 1.28h-.05c-.1-.44-.19-.86-.29-1.29-.09-.42-.19-.84-.29-1.26l-1.09-4.28h-.91l-1.09 4.28c-.09.43-.18.85-.28 1.27-.09.42-.19.84-.27 1.28h-.05c-.07-.44-.15-.86-.23-1.28-.08-.41-.16-.84-.23-1.27l-.83-4.28zm13.59 4.67h-2.37l.37-1.2c.15-.44.28-.88.41-1.32.13-.43.25-.88.37-1.34h.05c.13.46.26.91.39 1.34.12.44.26.88.4 1.32zm.25.8.74 2.4h1.07l-2.66-7.87h-1.13l-2.67 7.87h1.02l.76-2.4zm3.92-1.74v-2.93h1.32c.62 0 1.09.11 1.42.31.33.21.49.58.49 1.1 0 .51-.16.89-.49 1.14-.33.25-.8.38-1.42.38zm3.33 4.14h1.12l-1.99-3.43c.54-.14.97-.39 1.29-.76.32-.37.48-.86.48-1.47 0-.41-.07-.76-.21-1.04-.13-.28-.32-.5-.57-.68-.24-.18-.53-.3-.87-.38-.34-.07-.71-.11-1.11-.11h-2.46v7.87h.99v-3.32h1.43zm2.65-7.87v7.87h.92v-4.33c0-.35-.01-.74-.05-1.17-.03-.42-.06-.81-.08-1.16h.05l.62 1.75 1.53 4.12h.56l1.51-4.12.64-1.75h.05c-.04.35-.07.74-.09 1.16-.03.43-.05.82-.05 1.17v4.33h.95v-7.87h-1.17l-1.52 4.22-.55 1.61h-.05l-.57-1.61-1.53-4.22zm11.11 0v4.62c0 .63.07 1.16.22 1.59.14.44.34.79.59 1.05.25.27.55.46.9.58.35.12.72.17 1.12.17.4 0 .77-.05 1.12-.17.34-.12.64-.31.89-.58.25-.26.45-.61.6-1.05.14-.43.21-.96.21-1.59v-4.62h-.96v4.64c0 .47-.05.87-.14 1.19-.1.32-.23.58-.4.77-.17.19-.36.33-.59.41-.22.09-.46.13-.73.13-.25 0-.49-.04-.72-.13-.22-.08-.42-.22-.58-.41-.16-.19-.29-.45-.39-.77-.1-.32-.14-.72-.14-1.19v-4.64zm7.68 6.15-.6.7c.34.36.75.64 1.22.85.48.21.99.31 1.54.31.42 0 .79-.05 1.12-.17.32-.12.6-.28.84-.48.23-.2.41-.44.53-.71a2.208 2.208 0 0 0 .06-1.64c-.08-.22-.2-.41-.34-.58-.15-.16-.32-.31-.52-.43s-.41-.23-.63-.33l-1.12-.48c-.16-.06-.32-.13-.47-.21-.15-.08-.29-.16-.42-.26a1.1 1.1 0 0 1-.3-.35.937.937 0 0 1-.12-.49c0-.36.14-.64.4-.84.27-.21.63-.31 1.07-.31.36 0 .69.07.99.2.29.13.55.31.79.54l.54-.64a3.27 3.27 0 0 0-1.02-.71c-.4-.18-.83-.27-1.3-.27-.36 0-.69.06-.99.16-.3.1-.56.25-.78.44-.22.19-.4.41-.52.66-.12.26-.19.54-.19.83 0 .29.05.54.15.76.09.22.22.41.37.57.15.16.32.3.52.41.19.11.38.21.56.29l1.13.49c.18.09.35.17.51.25.16.08.3.17.42.27a1.13 1.13 0 0 1 .38.87c0 .39-.15.7-.44.93-.28.24-.69.36-1.21.36-.41 0-.8-.09-1.18-.27-.38-.18-.71-.42-.99-.72zm6.38-6.15v7.87h4.66v-.85h-3.66v-2.86h2.99v-.85h-2.99v-2.47h3.54v-.84zm7.32 3.73v-2.93h1.32c.62 0 1.09.11 1.42.31.33.21.49.58.49 1.1 0 .51-.16.89-.49 1.14-.33.25-.8.38-1.42.38zm3.33 4.14h1.13l-2-3.43c.54-.14.97-.39 1.29-.76.32-.37.48-.86.48-1.47 0-.41-.07-.76-.21-1.04-.13-.28-.32-.5-.57-.68-.24-.18-.53-.3-.87-.38-.34-.07-.71-.11-1.11-.11h-2.46v7.87h.99v-3.32h1.43zm5.07-7.87v7.87h1v-7.87zm3.16 0v7.87h.95v-4.12c0-.41-.02-.83-.04-1.24l-.09-1.22h.04l.86 1.62 2.85 4.96h1.03v-7.87h-.94v4.07c0 .41.01.83.04 1.26.03.43.05.84.08 1.24h-.05l-.85-1.63-2.85-4.94zm9.4.84v7.03h1v-7.03h2.38v-.84h-5.76v.84zm4.8-.84v7.87h4.65v-.85h-3.66v-2.86h2.99v-.85h-2.99v-2.47h3.54v-.84zm7.32 3.73v-2.93h1.32c.61 0 1.08.11 1.41.31.33.21.49.58.49 1.1 0 .51-.16.89-.49 1.14-.33.25-.8.38-1.41.38zm3.32 4.14h1.13l-1.99-3.43c.53-.14.96-.39 1.28-.76.32-.37.48-.86.48-1.47 0-.41-.07-.76-.2-1.04-.14-.28-.33-.5-.57-.68-.25-.18-.54-.3-.88-.38-.34-.07-.71-.11-1.11-.11h-2.46v7.87h1v-3.32h1.42zm2.65-7.87v7.87h1v-3.53h3v-.84h-3v-2.66h3.54v-.84zm8.83 4.67h-2.36l.37-1.2c.15-.44.28-.88.41-1.32.13-.43.25-.88.37-1.34h.05c.13.46.26.91.38 1.34.13.44.27.88.41 1.32zm.26.8.74 2.4h1.07l-2.67-7.87h-1.12l-2.67 7.87h1.02l.76-2.4zm2.35-1.54c0 .64.08 1.22.26 1.73.17.5.41.93.72 1.28.3.35.67.61 1.09.8.42.18.88.27 1.37.27.51 0 .95-.1 1.35-.3.39-.2.74-.48 1.05-.84l-.56-.61c-.26.28-.53.5-.81.65-.29.15-.62.23-1 .23s-.72-.08-1.02-.23c-.3-.15-.55-.37-.76-.65-.21-.28-.37-.62-.49-1.01-.11-.4-.17-.84-.17-1.34 0-.49.06-.93.18-1.32s.29-.73.5-1c.22-.28.48-.49.78-.64.31-.15.65-.22 1.02-.22.34 0 .63.07.89.2.25.13.48.31.69.53l.56-.63c-.23-.26-.53-.49-.89-.68-.36-.2-.78-.3-1.26-.3-.5 0-.97.1-1.4.29-.42.18-.79.45-1.11.81-.31.35-.55.78-.73 1.28-.17.5-.26 1.07-.26 1.7zm7.31-3.93v7.87h4.65v-.85h-3.66v-2.86h2.99v-.85h-2.99v-2.47h3.54v-.84z"/>
</svg>
